<svg width="121" height="28" viewBox="0 0 121 28" fill="none" xmlns="http://www.w3.org/2000/svg">
<rect x="0.072937" width="28.0972" height="28" rx="8" fill="#294BBB"/>
<path d="M9.52839 16.5048C10.8711 16.5048 11.9596 15.4201 11.9596 14.082C11.9596 12.7439 10.8711 11.6592 9.52839 11.6592C8.18566 11.6592 7.09717 12.7439 7.09717 14.082C7.09717 15.4201 8.18566 16.5048 9.52839 16.5048Z" stroke="white" stroke-width="1.5" stroke-linecap="round" stroke-linejoin="round"/>
<path d="M17.9684 11.8456C19.3111 11.8456 20.3996 10.7609 20.3996 9.42281C20.3996 8.08473 19.3111 7 17.9684 7C16.6257 7 15.5372 8.08473 15.5372 9.42281C15.5372 10.7609 16.6257 11.8456 17.9684 11.8456Z" stroke="white" stroke-width="1.5" stroke-linecap="round" stroke-linejoin="round"/>
<path d="M17.9684 21.164C19.3111 21.164 20.3996 20.0792 20.3996 18.7412C20.3996 17.4031 19.3111 16.3184 17.9684 16.3184C16.6257 16.3184 15.5372 17.4031 15.5372 18.7412C15.5372 20.0792 16.6257 21.164 17.9684 21.164Z" stroke="white" stroke-width="1.5" stroke-linecap="round" stroke-linejoin="round"/>
<path d="M10.6559 11.9612C12.876 10.7134 13.0107 10.7029 15.5372 9.99268" stroke="white" stroke-width="1.5" stroke-linecap="round" stroke-linejoin="round"/>
<path d="M10.6559 16.2024C12.876 17.4502 13.0107 17.4607 15.5372 18.1709" stroke="white" stroke-width="1.5" stroke-linecap="round" stroke-linejoin="round"/>
<path d="M35.5814 21V8.64062H37.6439V19.25H43.2377V21H35.5814ZM49.9408 16.2812H53.6283L52.5814 13.0781C52.5085 12.849 52.4252 12.5938 52.3314 12.3125C52.2481 12.0312 52.1543 11.724 52.0502 11.3906C51.9564 11.0469 51.8835 10.7917 51.8314 10.625H51.7377C51.7064 10.7292 51.4564 11.5469 50.9877 13.0781L49.9408 16.2812ZM46.1908 21L50.6595 8.64062H52.9252L57.3783 21H55.1908L54.1752 17.9375H49.3939L48.3783 21H46.1908ZM59.4095 8.64062H61.5814L62.847 15.4531C63.045 16.6198 63.222 17.724 63.3783 18.7656H63.4564C63.7689 17.0365 63.972 15.9323 64.0658 15.4531L65.5189 8.64062H67.597L69.0658 15.4531C69.1387 15.7969 69.2481 16.3906 69.3939 17.2344C69.5502 18.0677 69.6439 18.5781 69.6752 18.7656H69.7533C69.8054 18.4427 69.8939 17.8906 70.0189 17.1094C70.1543 16.3281 70.2481 15.776 70.3002 15.4531L71.5502 8.64062H73.722L70.9408 21H68.5814L67.1752 14.2812C66.8106 12.3333 66.6179 11.2865 66.597 11.1406H66.5345C66.5345 11.1719 66.3418 12.2188 65.9564 14.2812L64.5502 21H62.2064L59.4095 8.64062ZM76.8314 18.3594L78.6439 17.75C78.9356 18.2708 79.3575 18.6979 79.9095 19.0312C80.4616 19.3542 81.071 19.5156 81.7377 19.5156C82.4252 19.5156 82.9773 19.349 83.3939 19.0156C83.8106 18.6823 84.0189 18.25 84.0189 17.7188C84.0189 17.1562 83.795 16.7188 83.347 16.4062C82.9095 16.0938 82.2637 15.7917 81.4095 15.5C80.1908 15.0938 79.3679 14.7708 78.9408 14.5312C77.8262 13.8958 77.2689 12.974 77.2689 11.7656C77.2689 10.7448 77.67 9.92188 78.472 9.29688C79.2741 8.67188 80.321 8.35938 81.6127 8.35938C82.6752 8.35938 83.5814 8.60938 84.3314 9.10938C85.0918 9.59896 85.6439 10.2292 85.9877 11L84.2533 11.5781C83.5866 10.6094 82.7012 10.125 81.597 10.125C80.92 10.125 80.3835 10.276 79.9877 10.5781C79.5918 10.8802 79.3939 11.276 79.3939 11.7656C79.3939 11.9115 79.4095 12.0521 79.4408 12.1875C79.472 12.3125 79.5345 12.4323 79.6283 12.5469C79.722 12.6615 79.8054 12.7604 79.8783 12.8438C79.9512 12.9271 80.071 13.0156 80.2377 13.1094C80.4043 13.2031 80.5345 13.276 80.6283 13.3281C80.7325 13.3802 80.8991 13.4479 81.1283 13.5312C81.3575 13.6146 81.5189 13.6719 81.6127 13.7031C81.7168 13.7344 81.9043 13.7969 82.1752 13.8906C82.446 13.974 82.6283 14.0312 82.722 14.0625C83.2012 14.2188 83.6231 14.3854 83.9877 14.5625C84.3523 14.7396 84.7064 14.9688 85.0502 15.25C85.4043 15.5208 85.6752 15.8594 85.8627 16.2656C86.0502 16.6719 86.1439 17.1302 86.1439 17.6406C86.1439 18.7969 85.7273 19.6927 84.8939 20.3281C84.071 20.9635 83.0033 21.2812 81.6908 21.2812C80.5554 21.2812 79.5606 21.0208 78.7064 20.5C77.8523 19.9688 77.2273 19.2552 76.8314 18.3594ZM90.5189 21V8.64062H92.5814V21H90.5189ZM96.6127 10.4062V8.64062H105.8V10.4062H102.238V21H100.175V10.4062H96.6127ZM108.769 8.64062H111.128L113.035 12.2812C113.514 13.2188 113.852 13.8958 114.05 14.3125H114.113C114.342 13.875 114.686 13.1979 115.144 12.2812L117.035 8.64062H119.41L115.128 15.9844V21H113.066V15.9844L108.769 8.64062Z" fill="white"/>
</svg>
